<svg width="36" height="41" viewBox="0 0 36 41" fill="none" xmlns="http://www.w3.org/2000/svg">
<path d="M14.0114 16.0568V14.4695C13.4676 14.3969 12.9147 14.3516 12.3438 14.3516C5.53748 14.3425 0 19.8846 0 26.7057C0 30.8873 2.08449 34.5881 5.27465 36.8285C3.21736 34.6244 1.9576 31.6583 1.9576 28.411C1.9576 21.6897 7.34101 16.211 14.0114 16.0568Z" fill="#25F4EE"/>
<path d="M14.3099 34.0511C17.346 34.0511 19.8293 31.6292 19.938 28.6178L19.9471 1.70527H24.8592C24.7595 1.15197 24.7052 0.580519 24.7052 0H17.9986L17.9895 26.9125C17.8807 29.9239 15.3975 32.3458 12.3614 32.3458C11.4188 32.3458 10.5307 32.11 9.74219 31.6927C10.7572 33.1168 12.4248 34.0511 14.3099 34.0511Z" fill="#25F4EE"/>
<path d="M34.0414 10.8396V9.34292C32.1653 9.34292 30.4252 8.78961 28.957 7.82812C30.2621 9.32478 32.0294 10.4132 34.0414 10.8396Z" fill="#25F4EE"/>
<path d="M28.9585 7.82969C27.5265 6.18791 26.6656 4.04725 26.6656 1.70703H24.8711C25.3333 4.26494 26.8559 6.46003 28.9585 7.82969Z" fill="#FE2C55"/>
<path d="M12.3559 21.0539C9.24732 21.0539 6.71875 23.5846 6.71875 26.6958C6.71875 28.8636 7.95132 30.7503 9.74578 31.6937C9.07512 30.7685 8.67635 29.6346 8.67635 28.401C8.67635 25.2898 11.2049 22.7591 14.3135 22.7591C14.8936 22.7591 15.4555 22.8589 15.9811 23.0222V16.1648C15.4373 16.0922 14.8845 16.0469 14.3135 16.0469C14.2138 16.0469 14.1232 16.0559 14.0235 16.0559V21.3169C13.4888 21.1536 12.936 21.0539 12.3559 21.0539Z" fill="#FE2C55"/>
<path d="M34.0432 10.8398V16.0554C30.563 16.0554 27.3366 14.9398 24.7084 13.0531V26.7043C24.7084 33.5164 19.1709 39.0676 12.3555 39.0676C9.72727 39.0676 7.28026 38.2331 5.27734 36.8271C7.53403 39.249 10.7514 40.7729 14.3131 40.7729C21.1194 40.7729 26.666 35.2307 26.666 28.4096V14.7583C29.2942 16.645 32.5207 17.7607 36.0008 17.7607V11.0485C35.3211 11.0485 34.6686 10.9759 34.0432 10.8398Z" fill="#FE2C55"/>
<path d="M24.7051 26.7056V13.0544C27.3334 14.9411 30.5598 16.0567 34.04 16.0567V10.8411C32.028 10.4148 30.2607 9.32634 28.9556 7.82969C26.853 6.46003 25.3395 4.26494 24.8592 1.70703H19.947L19.938 28.6195C19.8292 31.631 17.346 34.0528 14.3099 34.0528C12.4248 34.0528 10.7662 33.1186 9.73307 31.7035C7.9386 30.7511 6.70603 28.8735 6.70603 26.7056C6.70603 23.5944 9.2346 21.0637 12.3432 21.0637C12.9232 21.0637 13.4851 21.1635 14.0108 21.3268V16.0658C7.34044 16.2109 1.95703 21.6896 1.95703 28.4109C1.95703 31.6582 3.21678 34.6152 5.27408 36.8284C7.277 38.2344 9.724 39.0689 12.3523 39.0689C19.1586 39.0689 24.7051 33.5177 24.7051 26.7056Z" fill="black"/>
</svg>
